<svg xmlns="http://www.w3.org/2000/svg" width="37.803" height="37.803" viewBox="0 0 37.803 37.803">
	<path fill="#fff" d="M1117,4835.493V4802.31a1.669,1.669,0,0,0,.068-.189,2.6,2.6,0,0,1,1.679-1.941c.183-.071.375-.121.563-.18h33.183c.072.025.141.056.215.074a2.617,2.617,0,0,1,1.9,1.625c.08.2.131.408.2.612v33.183a1.07,1.07,0,0,0-.065.163,2.6,2.6,0,0,1-1.955,2.052c-.1.027-.193.063-.29.095h-9.5c.008-.1.023-.208.023-.312q0-7.809,0-15.619v-.387h.278c1.313,0,2.625-.006,3.938,0,.225,0,.318-.07.331-.289.016-.271.043-.54.073-.809q.24-2.162.487-4.322c.021-.181-.033-.268-.217-.264h-.131l-4.541.005c-.118,0-.227.019-.224-.163.018-1.059.013-2.117.048-3.175a2.6,2.6,0,0,1,.2-.962,1.337,1.337,0,0,1,1.3-.686c1.048-.044,2.1-.032,3.148-.042.409,0,.413,0,.413-.4q0-2.454,0-4.909c0-.355-.02-.375-.369-.375-1.321,0-2.643-.009-3.964,0a11.335,11.335,0,0,0-3.464.452,5.358,5.358,0,0,0-3.1,2.389,8.047,8.047,0,0,0-.983,3.838c-.054,1.258-.028,2.52-.023,3.779,0,.217-.063.26-.267.256-.927-.011-1.855,0-2.782-.008-.24,0-.338.064-.336.328q.017,2.52,0,5.04c0,.24.069.323.313.319.8-.012,1.61,0,2.415,0h.639c.005.1.012.178.012.253q0,7.167,0,14.333c0,.577,0,1.155,0,1.732H1119.31c-.072-.024-.142-.056-.215-.073a2.614,2.614,0,0,1-1.9-1.625C1117.116,4835.907,1117.065,4835.7,1117,4835.493Z" transform="translate(-1117 -4800)" />
</svg>
