<svg xmlns="http://www.w3.org/2000/svg" width="37.803" height="37.801" viewBox="0 0 37.803 37.801">
	<path fill="#fff" d="M4031.77,5086.482a4.282,4.282,0,1,0,4.278,4.286A4.286,4.286,0,0,0,4031.77,5086.482Z" transform="translate(-4012.864 -5071.863)"  />
	<path fill="#fff" d="M3931.844,4973.889a4.579,4.579,0,0,0-4.523-3.165c-3.6,0-7.208-.012-10.812.01a5.274,5.274,0,0,0-1.612.247,4.575,4.575,0,0,0-3.169,4.5q-.014,5.442,0,10.885a4.575,4.575,0,0,0,1.956,3.877,4.649,4.649,0,0,0,2.838.866q2.684,0,5.37,0t5.394,0a4.917,4.917,0,0,0,1.665-.25,4.633,4.633,0,0,0,3.155-4.54c0-3.6.012-7.192-.009-10.788A5.309,5.309,0,0,0,3931.844,4973.889Zm-9.932,13.408a6.384,6.384,0,1,1,6.388-6.388A6.411,6.411,0,0,1,3921.912,4987.3Zm8.267-13a1.612,1.612,0,1,1-1.576-1.627A1.618,1.618,0,0,1,3930.179,4974.3Z" transform="translate(-3903.013 -4962.012)"/>
	<path fill="#fff" d="M3785.607,4808.7a2.616,2.616,0,0,0-1.9-1.625c-.073-.018-.143-.049-.215-.074H3750.31c-.187.059-.379.108-.563.18a2.6,2.6,0,0,0-1.679,1.941,1.584,1.584,0,0,1-.068.188v33.182c.065.2.116.414.2.612a2.615,2.615,0,0,0,1.9,1.624c.073.018.144.049.215.073h33.183c.1-.031.191-.067.29-.1a2.6,2.6,0,0,0,1.955-2.051,1.163,1.163,0,0,1,.066-.163V4809.31C3785.739,4809.106,3785.687,4808.9,3785.607,4808.7Zm-6.183,23.316c-.041.256-.068.516-.125.768a6.828,6.828,0,0,1-5.16,5.436c-.366.1-.749.138-1.124.2h-12.229c-.255-.04-.515-.067-.767-.124a6.825,6.825,0,0,1-5.436-5.16c-.1-.366-.138-.749-.2-1.124v-12.229c.041-.256.067-.515.125-.767a6.826,6.826,0,0,1,5.16-5.437c.365-.1.748-.138,1.124-.2h12.229c.257.041.515.067.768.124a6.824,6.824,0,0,1,5.436,5.16c.1.366.138.749.206,1.124Z" transform="translate(-3748 -4807)"/>
</svg>
