<svg xmlns="http://www.w3.org/2000/svg" width="37.803" height="37.803" viewBox="0 0 37.803 37.803">
	<path fill="#fff" d="M2027.607,4808.7a2.618,2.618,0,0,0-1.9-1.625c-.073-.018-.143-.049-.215-.074H1992.31c-.188.059-.38.107-.563.179a2.606,2.606,0,0,0-1.679,1.942,1.618,1.618,0,0,1-.069.189v33.183c.065.2.116.414.2.612a2.613,2.613,0,0,0,1.9,1.624c.073.019.143.049.215.074h33.183c.1-.031.192-.068.29-.095a2.6,2.6,0,0,0,1.955-2.052,1.1,1.1,0,0,1,.065-.163V4809.31C2027.739,4809.1,2027.687,4808.9,2027.607,4808.7Zm-25.748,29.351c0,.239-.055.324-.312.323-1.584-.013-3.169-.005-4.753-.007-.336,0-.337,0-.337-.338v-8.257c0-2.744,0-5.488-.005-8.232,0-.244.06-.32.313-.318q2.4.017,4.8,0c.227,0,.292.067.292.291Q2001.851,4829.78,2001.859,4838.049Zm-2.786-19.1a3.115,3.115,0,1,1,3.187-3.086A3.1,3.1,0,0,1,1999.073,4818.947Zm22.418,19.421c-1.6-.008-3.2,0-4.8,0-.322,0-.324,0-.324-.321,0-2.843.01-5.687-.014-8.529a9.7,9.7,0,0,0-.214-2.062,2.346,2.346,0,0,0-2.737-1.919,2.709,2.709,0,0,0-2.75,2.484,11.476,11.476,0,0,0-.155,1.776c-.015,2.754-.01,5.507,0,8.261,0,.244-.057.32-.311.318q-2.39-.018-4.779,0c-.224,0-.291-.062-.291-.289q.009-8.3,0-16.591c0-.192.037-.271.254-.271q2.3.015,4.607,0c.26,0,.316.088.311.324-.012.642,0,1.285,0,1.927a5.727,5.727,0,0,1,2.089-1.951,6.545,6.545,0,0,1,3.7-.708,7.3,7.3,0,0,1,2.4.539,4.85,4.85,0,0,1,2.7,3.065,10.573,10.573,0,0,1,.544,3.345c.03,3.447.029,6.894.046,10.342C2021.757,4838.3,2021.7,4838.369,2021.491,4838.368Z" transform="translate(-1990 -4806.999)"/>
</svg>
