<svg xmlns="http://www.w3.org/2000/svg" width="37.803" height="37.807" viewBox="0 0 37.803 37.807">
	<path d="M3021.764,5183.578v1.27h1.6v8.559h1.718v-8.565h.312c.393,0,.785.006,1.177-.007.066,0,.184-.091.186-.143.017-.363.008-.728.008-1.114Z" transform="translate(-3013.769 -5163.952)" fill="#404449" />
	<path d="M3237.88,5186.006a1.7,1.7,0,0,0-1.583.427c-.107.082-.213.166-.37.289v-3.187h-1.579v9.83h1.6v-.667a4.022,4.022,0,0,0,.343.28,5.046,5.046,0,0,0,.686.4,1.185,1.185,0,0,0,1.694-1.034c.013-.749.033-1.5.031-2.246,0-1.043-.011-2.086-.044-3.129A.986.986,0,0,0,3237.88,5186.006Zm-1.733,6.118a.345.345,0,0,1-.209-.354c.01-.687,0-1.373,0-2.06s0-1.373,0-2.06c0-.249.341-.511.68-.526.278-.013.418.118.46.437a2.25,2.25,0,0,1,.017.292q0,1.86,0,3.718C3237.1,5192.31,3236.793,5192.482,3236.146,5192.124Z" transform="translate(-3215.219 -5163.913)" fill="#404449" />
	<path d="M3209.117,4998.294a.624.624,0,0,0,1.236-.089c.018-.748.005-1.5.005-2.245h0c0-.748.013-1.5-.005-2.244a.627.627,0,0,0-1.251-.041,2.187,2.187,0,0,0-.026.345q0,1.939,0,3.877A2.192,2.192,0,0,0,3209.117,4998.294Z" transform="translate(-3191.233 -4983.372)" fill="#404449" />
	<path d="M3123.075,5230.633q0,2.689,0,5.377c0,.152-.015.267-.176.348-.25.125-.5.292-.774.125-.252-.153-.2-.437-.2-.681q0-2.595,0-5.19v-.317h-1.595c-.005.091-.014.168-.014.247q0,2.755,0,5.511c0,.24.021.48.045.719a.979.979,0,0,0,.692.865,1.68,1.68,0,0,0,1.646-.353l.368-.267c.054.229.1.417.141.6h1.466V5230.3h-1.6Z" transform="translate(-3107.154 -5208.183)" fill="#404449" />
	<path d="M2906.607,4808.7a2.616,2.616,0,0,0-1.9-1.625c-.073-.019-.143-.049-.214-.074H2871.31c-.188.059-.38.108-.563.18a2.605,2.605,0,0,0-1.678,1.942,1.765,1.765,0,0,1-.069.188V4842.5c.064.2.116.414.2.611a2.615,2.615,0,0,0,1.9,1.625c.073.018.143.049.215.074h33.183c.1-.032.192-.068.29-.1a2.6,2.6,0,0,0,1.955-2.052,1.035,1.035,0,0,1,.066-.163v-33.186C2906.738,4809.107,2906.687,4808.9,2906.607,4808.7Zm-14.914,7.236v-.322h1.735v.31q0,2.789,0,5.577c0,.122,0,.244.015.366.038.391.238.55.618.45a1.825,1.825,0,0,0,.534-.262c.054-.037.062-.168.062-.257q.005-2.931,0-5.864v-.32h1.712v7.9c-.486,0-.971,0-1.456-.007-.051,0-.124-.1-.145-.168-.049-.154-.072-.317-.107-.487-.283.189-.537.374-.805.533a1.554,1.554,0,0,1-1.183.191,1.123,1.123,0,0,1-.948-1.1c-.023-.286-.033-.575-.033-.863Q2891.69,4818.776,2891.693,4815.936Zm-6.56,1.908a4.12,4.12,0,0,1,.164-1.105,1.572,1.572,0,0,1,1.053-1.048,3.4,3.4,0,0,1,2.307.009,1.736,1.736,0,0,1,1.172,1.668c.041.739.009,1.482.009,2.223h.005c0,.681.02,1.362,0,2.041a1.83,1.83,0,0,1-1.614,1.916,3.479,3.479,0,0,1-1.734-.064,1.784,1.784,0,0,1-1.322-1.585,4.459,4.459,0,0,1-.041-.626C2885.124,4820.128,2885.113,4818.986,2885.133,4817.843Zm-4.117-4.945c.179.666.366,1.318.531,1.975s.306,1.322.5,1.988l.981-3.958H2885c-.227.685-.447,1.354-.669,2.022-.44,1.322-.884,2.644-1.32,3.966a1.515,1.515,0,0,0-.073.46c-.006,1.283,0,2.565,0,3.849v.3h-1.845v-.288c0-1.283,0-2.566,0-3.849a1.594,1.594,0,0,0-.079-.484q-.949-2.879-1.91-5.753c-.022-.066-.04-.132-.068-.228Zm20.294,21.257c-.019.084-.043.167-.058.252a4.4,4.4,0,0,1-.563,1.592,4.6,4.6,0,0,1-4.165,2.347q-8.622.007-17.245,0c-.1,0-.21,0-.314-.006a4.638,4.638,0,0,1-4.167-3.029c-.135-.374-.205-.77-.3-1.157v-5.028c.089-.353.151-.715.273-1.056a4.638,4.638,0,0,1,4.482-3.117q8.654-.013,17.306,0a4.636,4.636,0,0,1,4.709,4.053.59.59,0,0,0,.046.118Z" transform="translate(-2869 -4807)" fill="#404449" />
	<path d="M3349.607,5234.123a.52.52,0,0,1-.53.5c-.315.017-.567-.123-.578-.393-.026-.646-.008-1.293-.008-1.968h2.72c0-.866.029-1.686-.012-2.5a1.384,1.384,0,0,0-.657-1.083,2.825,2.825,0,0,0-2.237-.328,1.617,1.617,0,0,0-1.431,1.618c-.05.827-.037,1.657-.038,2.486,0,.561-.006,1.125.044,1.683a1.634,1.634,0,0,0,1.092,1.485,2.985,2.985,0,0,0,2.242-.044,1.464,1.464,0,0,0,.932-1.064,12.319,12.319,0,0,0,.138-1.36h-1.674C3349.611,5233.485,3349.624,5233.8,3349.607,5234.123Zm-1.117-4.294c.017-.252.286-.4.587-.38s.522.171.534.448c.019.424.005.851.005,1.307h-1.135C3348.481,5230.742,3348.459,5230.284,3348.49,5229.829Z" transform="translate(-3321.82 -5206.256)" fill="#404449" />
</svg>
